<svg xmlns="http://www.w3.org/2000/svg" viewBox="0 0 1280 960" role="img" aria-label="一次业务请求从最终用户经应用系统和 DBMS 访问数据库，并由软件与硬件平台支撑的关系图">
  <rect width="1280" height="960" fill="#fbfcfa"/>
  <g fill="none" stroke="#d4dde2" stroke-width="2" opacity=".72">
    <path d="M0 150H1280M0 300H1280M0 450H1280M0 600H1280M0 750H1280M160 0V960M320 0V960M480 0V960M640 0V960M800 0V960M960 0V960M1120 0V960"/>
    <path d="M0 840 1280 110M0 690 1120 0M160 960 1280 280" opacity=".42"/>
  </g>
  <g fill="#e7f0f6" stroke="#185b91" stroke-width="5">
    <rect x="86" y="300" width="220" height="132" rx="12"/>
    <rect x="374" y="300" width="220" height="132" rx="12"/>
    <rect x="662" y="300" width="220" height="132" rx="12"/>
    <path d="M950 300h180l54 54v78H950z"/>
    <path d="M950 300v132M1130 300v54h54"/>
  </g>
  <g fill="#fbf1ea" stroke="#a8542b" stroke-width="4">
    <circle cx="110" cy="160" r="23"/>
    <circle cx="176" cy="130" r="23"/>
    <circle cx="242" cy="160" r="23"/>
    <circle cx="1080" cy="150" r="23"/>
    <circle cx="1146" cy="180" r="23"/>
  </g>
  <g fill="none" stroke="#a8542b" stroke-width="5" stroke-linecap="round" stroke-linejoin="round">
    <path d="M134 180 182 250M198 150 218 250M266 180 254 250M1060 175 1012 250M1124 195 1090 250"/>
    <path d="M322 366h42M610 366h42M898 366h42"/>
    <path d="m348 352 18 14-18 14M636 352l18 14-18 14M924 352l18 14-18 14"/>
  </g>
  <g fill="#173f5f" font-family="PingFang SC, Hiragino Sans GB, sans-serif" font-size="32" font-weight="600" text-anchor="middle">
    <text x="196" y="375">用户请求</text>
    <text x="484" y="375">应用系统</text>
    <text x="772" y="375">DBMS</text>
    <text x="1040" y="375">数据库</text>
  </g>
  <g fill="#185b91" opacity=".22">
    <circle cx="122" cy="194" r="7"/><circle cx="188" cy="164" r="7"/><circle cx="254" cy="194" r="7"/>
    <circle cx="1060" cy="184" r="7"/><circle cx="1126" cy="214" r="7"/>
  </g>
  <g fill="#f2f6f8" stroke="#185b91" stroke-width="4">
    <path d="M70 650 290 570 510 650 290 734Z"/>
    <path d="M290 734 510 650 510 724 290 808Z"/>
    <path d="M70 650 290 734 290 808 70 724Z"/>
    <path d="M570 650 790 570 1010 650 790 734Z"/>
    <path d="M790 734 1010 650 1010 724 790 808Z"/>
    <path d="M570 650 790 734 790 808 570 724Z"/>
  </g>
  <g fill="none" stroke="#a8542b" stroke-width="4" stroke-linecap="round">
    <path d="M118 676h90M618 676h90M318 700h90M818 700h90"/>
    <path d="M144 694h38M644 694h38M344 718h38M844 718h38"/>
  </g>
  <g fill="#173f5f" font-family="PingFang SC, Hiragino Sans GB, sans-serif" font-size="28" font-weight="600" text-anchor="middle">
    <text x="290" y="690">软件平台</text>
    <text x="790" y="690">硬件平台</text>
    <text x="176" y="105">最终用户</text>
    <text x="1115" y="105">DBA 与开发团队</text>
  </g>
  <g fill="none" stroke="#185b91" stroke-width="4" stroke-dasharray="12 10" opacity=".72">
    <path d="M290 570V500H772V432"/>
    <path d="M790 570V500H1040V432"/>
  </g>
  <path d="M48 876H1230" stroke="#aebdc6" stroke-width="3"/>
</svg>
