<svg xmlns="http://www.w3.org/2000/svg" viewBox="0 0 1280 960" role="img" aria-label="数据库系统部署与协作的工程线稿">
  <rect width="1280" height="960" fill="#fbfcfa"/>
  <g fill="none" stroke="#d4dde2" stroke-width="2" opacity=".72">
    <path d="M0 130H1280M0 260H1280M0 390H1280M0 520H1280M0 650H1280M0 780H1280M130 0V960M260 0V960M390 0V960M520 0V960M650 0V960M780 0V960M910 0V960M1040 0V960M1170 0V960"/>
    <path d="M0 960 1280 0M160 960 1280 120M0 800 1040 0" opacity=".45"/>
  </g>
  <g fill="#e7f0f6" stroke="#185b91" stroke-width="4">
    <path d="M78 760 266 646 458 712 270 832Z"/>
    <path d="M270 832 458 712 458 788 270 912Z"/>
    <path d="M78 760 270 832 270 912 78 840Z"/>
    <path d="M388 560 578 446 770 512 580 626Z"/>
    <path d="M580 626 770 512 770 588 580 702Z"/>
    <path d="M388 560 580 626 580 702 388 636Z"/>
    <path d="M700 344 890 230 1084 298 894 414Z"/>
    <path d="M894 414 1084 298 1084 374 894 490Z"/>
    <path d="M700 344 894 414 894 490 700 420Z"/>
  </g>
  <g fill="#fbf1ea" stroke="#a8542b" stroke-width="4">
    <circle cx="270" cy="760" r="22"/>
    <circle cx="580" cy="560" r="22"/>
    <circle cx="894" cy="346" r="22"/>
    <circle cx="1090" cy="190" r="16"/>
  </g>
  <g fill="none" stroke="#a8542b" stroke-width="5" stroke-linecap="round" stroke-linejoin="round">
    <path d="M292 748 558 574M602 548 872 360M916 330 1078 202"/>
    <path d="m538 574 20-2-7 19M852 360l20-2-7 19M1058 202l20-1-8 18"/>
  </g>
  <g fill="none" stroke="#185b91" stroke-width="3" opacity=".7">
    <path d="M106 696 260 602 424 658M424 658 590 558 744 612M744 612 902 512 1052 560"/>
    <path d="M106 696V746M424 658V708M744 612V662M1052 560V610"/>
    <path d="M136 708h86M454 670h86M774 624h86M1082 572h86"/>
  </g>
  <g fill="#185b91" opacity=".22">
    <circle cx="110" cy="105" r="5"/><circle cx="145" cy="105" r="5"/><circle cx="180" cy="105" r="5"/>
    <circle cx="110" cy="140" r="5"/><circle cx="145" cy="140" r="5"/><circle cx="180" cy="140" r="5"/>
    <circle cx="110" cy="175" r="5"/><circle cx="145" cy="175" r="5"/><circle cx="180" cy="175" r="5"/>
  </g>
  <path d="M42 900H1228" stroke="#aebdc6" stroke-width="3"/>
</svg>
